<svg xmlns="http://www.w3.org/2000/svg" version="1.1" xmlns:xlink="http://www.w3.org/1999/xlink" xmlns:svgjs="http://svgjs.com/svgjs" width="1920" height="1080" preserveAspectRatio="none" viewBox="0 0 1920 1080"><g mask="url(&quot;#SvgjsMask1005&quot;)" fill="none"><rect width="1920" height="1080" x="0" y="0" fill="rgba(255, 238, 203, 1)"></rect><path d="M0,921.116C173.24,908.202,209.526,647.255,357.952,556.984C512.679,462.881,750.905,535.667,865,395.032C978.472,255.165,953.001,44.613,916.759,-131.81C881.783,-302.068,808.998,-478.637,665.405,-576.576C529.581,-669.217,341.79,-580.633,185.212,-630.772C22.363,-682.919,-84.975,-875.458,-255.925,-871.601C-432.515,-867.617,-614.535,-762.536,-704.777,-610.693C-793.119,-462.046,-712.749,-275.431,-713.001,-102.514C-713.212,42.099,-765.024,190.401,-706.136,322.481C-647.054,454.998,-504.648,519.212,-393.975,613.036C-264.183,723.068,-169.685,933.765,0,921.116" fill="#ffd06f"></path><path d="M1920 1571.817C2008.858 1549.76 2094.5389999999998 1520.04 2166.079 1462.906 2232.721 1409.683 2263.941 1329.525 2311.787 1258.923 2370.82 1171.812 2471.295 1104.32 2480.142 999.4639999999999 2489.392 889.827 2441.9210000000003 771.9159999999999 2358.975 699.626 2278.317 629.331 2159.833 632.271 2052.964 627.1669999999999 1965.761 623.0029999999999 1887.613 667.511 1800.481 672.954 1678.552 680.5699999999999 1526.157 577.3 1441.483 665.363 1358.63 751.5319999999999 1462.9 896.21 1471.149 1015.465 1477.347 1105.066 1467.643 1190.818 1483.937 1279.143 1505.107 1393.902 1483.613 1543.229 1580.507 1608.262 1676.963 1673 1807.255 1599.804 1920 1571.817" fill="#ffffff"></path></g><defs><mask id="SvgjsMask1005"><rect width="1920" height="1080" fill="#ffffff"></rect></mask></defs></svg>